# xmcd
#
# Track frame offsets:
#	150
#	20402
#	35435
#	56575
#	73905
#	96499
#	111008
#	129179
#	148182
#	189011
#	208473
#	230106
#	243698
#
# Disc length: 3452 seconds
#
# Revision: 1
# Processed by: cddbd v1.4PL0 Copyright (c) Steve Scherf et al.
# Submitted via: EasyCDDAExtractor 5.1.0
#
DISCID=c50d7a0d
DTITLE=Greg Koch - 13 x 12 [CD1]
DYEAR=2003
DGENRE=Blues
TTITLE0=Beg, Borrow and Steal
TTITLE1=Dr. Jekyll
TTITLE2=Ain't Got Problems
TTITLE3=Smack Dab
TTITLE4=Too Broke
TTITLE5=Heed The Need
TTITLE6=Forever At Last
TTITLE7=Flyover Country
TTITLE8=Red House
TTITLE9=All The Same
TTITLE10=Rain, Sleet Or Snow
TTITLE11=Fall From Grace
TTITLE12=Pink Toenails
EXTD=
EXTT0=
EXTT1=
EXTT2=
EXTT3=
EXTT4=
EXTT5=
EXTT6=
EXTT7=
EXTT8=
EXTT9=
EXTT10=
EXTT11=
EXTT12=
PLAYORDER=
